<?xml version="1.0" standalone="no"?>
<!DOCTYPE svg PUBLIC "-//W3C//DTD SVG 20010904//EN"
 "http://www.w3.org/TR/2001/REC-SVG-20010904/DTD/svg10.dtd">
<svg version="1.0" xmlns="http://www.w3.org/2000/svg"
 width="512.000000pt" height="512.000000pt" viewBox="0 0 512.000000 512.000000"
 preserveAspectRatio="xMidYMid meet">
<metadata>
Created by potrace 1.11, written by Peter Selinger 2001-2013
</metadata>
<g transform="translate(0.000000,512.000000) scale(0.100000,-0.100000)"
fill="#000000" stroke="none">
<path d="M0 2560 l0 -2560 645 0 645 0 0 2560 0 2560 -645 0 -645 0 0 -2560z
m790 2376 c149 -46 260 -157 329 -329 19 -48 25 -170 12 -239 -45 -230 -234
-394 -466 -403 -160 -6 -286 44 -389 155 -156 169 -179 419 -55 611 66 104
197 194 314 218 63 13 196 6 255 -13z m-20 -1893 c118 -34 237 -124 297 -223
162 -268 41 -611 -258 -731 -69 -27 -225 -34 -296 -13 -121 35 -240 124 -300
224 -162 268 -37 621 259 729 29 11 62 21 73 24 42 9 182 3 225 -10z m-28
-1904 c190 -40 354 -206 389 -396 38 -204 -62 -422 -241 -525 -203 -117 -456
-78 -617 96 -49 53 -67 83 -113 191 -7 17 -14 75 -15 130 -3 83 1 112 20 168
83 245 329 388 577 336z"/>
<path d="M1490 2560 l0 -2560 1815 0 1815 0 0 2560 0 2560 -1815 0 -1815 0 0
-2560z"/>
</g>
</svg>
